<svg version="1.1" id="svg4392" xml:space="preserve" width="682.66669" height="682.66669" viewBox="0 0 682.66669 682.66669" xmlns="http://www.w3.org/2000/svg"><defs id="defs4396"><clipPath clipPathUnits="userSpaceOnUse" id="clipPath4406"><path d="M 0,512 H 512 V 0 H 0 Z" id="path4404"></path></clipPath></defs><g id="g4398" transform="matrix(1.3333333,0,0,-1.3333333,0,682.66667)"><g id="g4400"><g id="g4402" clip-path="url(#clipPath4406)"><g id="g4408" transform="translate(392.0464,11)"><path d="M 0,0 -53.914,65.581" style="fill:none;;stroke-width:20;stroke-linecap:round;stroke-linejoin:round;stroke-miterlimit:10;stroke-dasharray:none;stroke-opacity:1" id="path4410"></path></g><g id="g4412" transform="translate(111.1948,399.3291)"><path d="m 0,0 h 200.236 c 0,-40.284 32.654,-72.946 72.962,-72.946 v -44.08 -44.079 c -24.094,0 -45.439,-11.671 -58.733,-29.661 m -52.723,-43.286 H 0" style="fill:none;;stroke-width:20;stroke-linecap:round;stroke-linejoin:round;stroke-miterlimit:10;stroke-dasharray:none;stroke-opacity:1" id="path4414"></path></g><g id="g4416" transform="translate(10,376.2695)"><path d="m 0,0 v 70 c 0,27.818 22.762,50.566 50.598,50.566 27.807,0 50.597,-22.748 50.597,-50.566 v -281.247 m -101.195,0 v 121.474" style="fill:none;;stroke-width:20;stroke-linecap:round;stroke-linejoin:round;stroke-miterlimit:10;stroke-dasharray:none;stroke-opacity:1" id="path4418"></path></g><g id="g4420" transform="translate(60.5977,114.4561)"><path d="m 0,0 c 27.864,0 50.597,22.72 50.597,50.566 0,27.848 -22.733,50.538 -50.597,50.538 -27.864,0 -50.598,-22.69 -50.598,-50.538 C -50.598,22.72 -27.864,0 0,0 Z" style="fill:none;;stroke-width:20;stroke-linecap:round;stroke-linejoin:round;stroke-miterlimit:10;stroke-dasharray:none;stroke-opacity:1" id="path4422"></path></g><g id="g4424" transform="translate(435.2739,394.2012)"><path d="M 0,0 H 66.726 M 0,-55.949 H 66.726 M 0,-111.898 H 66.726 M 0,-167.847 H 66.726 M 0,-223.796 h 66.726 m -84.074,-55.949 H 66.726 M -17.348,55.978 h 84.074" style="fill:none;;stroke-width:20;stroke-linecap:round;stroke-linejoin:round;stroke-miterlimit:10;stroke-dasharray:none;stroke-opacity:1" id="path4426"></path></g><g id="g4428" transform="translate(317.5532,59.6973)"><path d="m 0,0 41.13,33.768 c 10.97,9.007 12.585,25.353 3.571,36.317 L 28.317,90.028 -52.724,23.513 -36.339,3.569 C -27.326,-7.395 -10.97,-9.009 0,0 Z" style="fill:none;;stroke-width:20;stroke-linecap:round;stroke-linejoin:round;stroke-miterlimit:10;stroke-dasharray:none;stroke-opacity:1" id="path4430"></path></g><g id="g4432" transform="translate(264.8296,83.21)"><path d="M 0,0 81.041,66.516 60.831,125.354 -53.829,31.246 Z" style="fill:none;;stroke-width:20;stroke-linecap:round;stroke-linejoin:round;stroke-miterlimit:10;stroke-dasharray:none;stroke-opacity:1" id="path4434"></path></g><g id="g4436" transform="translate(235.5767,501)"><path d="M 0,0 17.575,-33.286 50.881,-50.821 17.575,-68.386 0,-101.671 l -17.546,33.285 -33.307,17.565 33.307,17.535 z" style="fill:none;;stroke-width:20;stroke-linecap:round;stroke-linejoin:round;stroke-miterlimit:10;stroke-dasharray:none;stroke-opacity:1" id="path4438"></path></g><g id="g4440" transform="translate(111.0249,450.1787)"><path d="M 0,0 H 73.699 M 99.976,-335.723 H -50.427 M 175.433,0 h 131.468 c 9.524,0 17.348,-7.819 17.348,-17.365 v -301.021 c 0,-9.547 -7.824,-17.337 -17.348,-17.337 h -49.86" style="fill:none;;stroke-width:20;stroke-linecap:round;stroke-linejoin:round;stroke-miterlimit:10;stroke-dasharray:none;stroke-opacity:1" id="path4442"></path></g><g id="g4444" transform="translate(152.5234,114.4561)"><path d="M 0,0 17.687,-33.569 51.277,-51.246 17.687,-68.924 0,-102.493 l -17.688,33.569 -33.59,17.678 33.59,17.677 z" style="fill:none;;stroke-width:20;stroke-linecap:round;stroke-linejoin:round;stroke-miterlimit:10;stroke-dasharray:none;stroke-opacity:1" id="path4446"></path></g><g id="g4448" transform="translate(10,331.3398)"><path d="M 0,0 V 0.028" style="fill:none;;stroke-width:20;stroke-linecap:round;stroke-linejoin:round;stroke-miterlimit:10;stroke-dasharray:none;stroke-opacity:1" id="path4450"></path></g></g></g></g>
                    </svg>