<svg width="60" height="40" viewBox="0 0 22 18" xmlns="http://www.w3.org/2000/svg">
                  <path d="M15.8649 18H6.13513C2.58377 18 0.540527 15.9568 0.540527 12.4054V5.5946C0.540527 2.04324 2.58377 0 6.13513 0H15.8649C19.4162 0 21.4595 2.04324 21.4595 5.5946V12.4054C21.4595 15.9568 19.4162 18 15.8649 18ZM6.13513 1.45946C3.35242 1.45946 1.99999 2.81189 1.99999 5.5946V12.4054C1.99999 15.1881 3.35242 16.5406 6.13513 16.5406H15.8649C18.6476 16.5406 20 15.1881 20 12.4054V5.5946C20 2.81189 18.6476 1.45946 15.8649 1.45946H6.13513Z"></path>
                  <path d="M10.9988 9.8465C10.1815 9.8465 9.35452 9.59352 8.72208 9.07785L5.67668 6.64539C5.36532 6.39241 5.30696 5.93511 5.55992 5.62376C5.8129 5.31241 6.2702 5.25403 6.58155 5.50701L9.62695 7.93947C10.3664 8.53298 11.6215 8.53298 12.361 7.93947L15.4064 5.50701C15.7178 5.25403 16.1848 5.30268 16.428 5.62376C16.681 5.93511 16.6324 6.40214 16.3113 6.64539L13.2659 9.07785C12.6432 9.59352 11.8161 9.8465 10.9988 9.8465Z"></path>
              </svg>