<svg enable-background="new 0 0 507.873 507.873" height="512" viewBox="0 0 507.873 507.873" width="512" xmlns="http://www.w3.org/2000/svg"><circle cx="226.412" cy="152" r="7.5"></circle><circle cx="226.412" cy="199.5" r="7.5"></circle><circle cx="226.412" cy="247" r="7.5"></circle><circle cx="226.412" cy="294.5" r="7.5"></circle><circle cx="284.681" cy="152" r="7.5"></circle><circle cx="284.681" cy="199.5" r="7.5"></circle><circle cx="284.681" cy="247" r="7.5"></circle><circle cx="284.681" cy="294.5" r="7.5"></circle><path d="m440.964 83.397h-81.814v-29.175c0-4.492-2.032-8.652-5.574-11.413-3.543-2.763-8.075-3.717-12.428-2.62l-1.31.33v-20.174c.001-11.218-9.126-20.345-20.344-20.345h-24.844c-2.535 0-5.013.481-7.366 1.431l-28.54 11.525c-1.761.711-3.369 1.659-4.807 2.787-1.439-1.128-3.046-2.076-4.807-2.787l-28.543-11.526c-2.352-.949-4.829-1.43-7.364-1.43h-24.844c-11.218 0-20.345 9.127-20.345 20.345v20.172l-1.31-.33c-4.354-1.095-8.885-.141-12.428 2.621-3.542 2.761-5.574 6.921-5.574 11.413v29.176h-81.813c-19.415 0-35.211 15.795-35.211 35.21v104.241c0 4.142 3.357 7.5 7.5 7.5s7.5-3.358 7.5-7.5v-104.24c0-11.144 9.066-20.21 20.211-20.21h13.75l13.983 161.396c.456 12.117 10.253 21.573 22.41 21.573 2.403 0 4.592 1.115 6.006 3.058 1.413 1.944 1.8 4.37 1.06 6.656l-11.822 36.506c-1.803 5.565-1.378 11.524 1.197 16.779l72.787 148.506h-119.371c-11.145 0-20.211-9.066-20.211-20.21v-219.813c0-4.142-3.357-7.5-7.5-7.5s-7.5 3.358-7.5 7.5v219.814c0 19.415 15.796 35.21 35.211 35.21h374.055c19.415 0 35.211-15.795 35.211-35.21v-354.055c0-19.415-15.796-35.211-35.211-35.211zm-187.027-28.65c12.817 0 23.245 10.428 23.245 23.245s-10.428 23.245-23.245 23.245-23.245-10.428-23.245-23.245c-.001-12.817 10.427-23.245 23.245-23.245zm90.746 59.69c3.467 0 6.844-1.247 9.494-3.553 3.161-2.75 4.974-6.729 4.974-10.918v-1.568h14.533l-112.247 359.174v-342.078c7.264-1.451 13.787-4.969 18.94-9.908l62.3 8.71c.669.095 1.339.141 2.006.141zm-.533-59.537v44.457l-54.532-7.625c1.649-4.268 2.563-8.898 2.563-13.74 0-3.35-.436-6.6-1.249-9.698zm-79.79-28.035 28.539-11.524c.56-.226 1.148-.34 1.751-.34h24.844c2.947 0 5.345 2.398 5.345 5.345v23.948l-40.723 10.249c-5.537-7.11-13.52-12.223-22.679-14.051v-9.293c0-1.917 1.147-3.617 2.923-4.334zm-81.326-6.52c0-2.947 2.397-5.345 5.345-5.345h24.844c.603 0 1.191.114 1.749.34l28.542 11.525c1.775.717 2.923 2.417 2.923 4.333v9.293c-9.16 1.829-17.143 6.941-22.68 14.052l-40.723-10.249zm-19.311 34.555 53.218 13.394c-.813 3.099-1.249 6.348-1.249 9.698 0 4.842.914 9.473 2.563 13.741l-54.532 7.624zm-10.027 55.984c2.651 2.306 6.026 3.553 9.494 3.553.667 0 1.338-.046 2.006-.14l62.254-8.704-.008-.059c5.161 4.967 11.705 8.504 18.995 9.96v343.125l-112.576-360.222h14.861v1.568c.001 4.19 1.813 8.169 4.974 10.919zm-27.132 221.325 11.822-36.507c2.236-6.904 1.07-14.23-3.198-20.1-4.269-5.869-10.88-9.235-18.137-9.235-4.053 0-7.313-3.173-7.424-7.225l-.006-.222-13.907-160.523h21.687.745l123.28 394.476h-38.442l-76.022-155.107c-.854-1.741-.994-3.714-.398-5.557zm334.611 140.454c0 11.144-9.066 20.21-20.211 20.21h-119.698l72.786-148.506c2.575-5.253 3.001-11.212 1.197-16.779l-11.821-36.507c-.74-2.286-.354-4.712 1.059-6.655 1.414-1.943 3.603-3.058 6.006-3.058 12.157 0 21.954-9.457 22.41-21.574l3.612-41.697c.357-4.127-2.697-7.762-6.824-8.12-4.125-.354-7.762 2.698-8.119 6.825l-3.63 41.897c-.013.147-.021.295-.025.444-.11 4.051-3.371 7.225-7.424 7.225-7.258 0-13.868 3.366-18.137 9.236-4.269 5.869-5.434 13.195-3.198 20.099l11.822 36.507c.597 1.843.456 3.816-.396 5.556l-76.022 155.108h-38.116l123.28-394.476h22.104l-7.663 88.444c-.357 4.127 2.697 7.762 6.824 8.12.221.019.438.028.656.028 3.849 0 7.125-2.947 7.463-6.853l7.775-89.739h14.078c11.145 0 20.211 9.066 20.211 20.21v354.055z"></path></svg>