<svg height="512" viewBox="0 0 60 60" width="512" xmlns="http://www.w3.org/2000/svg"><g fill-rule="evenodd"><g fill-rule="nonzero"><path d="m3.5 35h47c1.9329966 0 3.5-1.5670034 3.5-3.5s-1.5670034-3.5-3.5-3.5h-1.362c.3376142-1.3418289 1.3503017-2.4106083 2.672-2.82 1.2825207-.3716384 2.1714863-1.5378476 2.19-2.873v-11.207c2.3264168.4784327 3.9970017 2.5248992 4 4.9v18c0 .5522847.4477153 1 1 1s1-.4477153 1-1v-18c-.0066473-3.4756199-2.5603905-6.42093699-6-6.92v-1.08c-.0061062-1.37609602-.9476545-2.57158206-2.284-2.9l-1.284-3.21c-.4513816-1.14318246-1.5569348-1.89318085-2.786-1.89h-5.292c-1.2280719-.00382827-2.3333398.74438971-2.786 1.886l-1.245 3.114h-1.323c-.3 0-29.407.28-34.845 23.27-1.53881462.6422026-2.41091431 2.2808058-2.08413496 3.9159174.32677936 1.6351116 1.76169005 2.8126555 3.42913496 2.8140826zm37.926-32.371c.1503094-.38074697.5186601-.63041571.928-.629h5.292c.4093399-.00141571.7776906.24825303.928.629l.949 2.371h-9.046zm-4.426 4.371h14c.5522847 0 1 .44771525 1 1v14.307c-.0180268.4596574-.3375493.8521322-.784.963-2.1626717.6658154-3.762768 2.4974842-4.132 4.73h-42.794c5.524-20.716 32.434-21 32.71-21zm-33.5 23h47c.8284271 0 1.5.6715729 1.5 1.5s-.6715729 1.5-1.5 1.5h-47c-.82842712 0-1.5-.6715729-1.5-1.5s.67157288-1.5 1.5-1.5z"></path><path d="m8.1 25.905c.24011727.1133667.51546404.1265789.76533272.0367238.24986867-.0898552.4537408-.2753992.56666728-.5157238 2.1359356-4.3646734 5.6660496-7.892676 10.032-10.026.4893243-.2562601.6782601-.8606757.422-1.35s-.8606757-.6782601-1.35-.422c-4.7529531 2.3339229-8.59231104 6.1855966-10.911 10.946-.23595824.498734-.02340153 1.0943403.475 1.331z"></path><path d="m29 22h17c1.6568542 0 3-1.3431458 3-3v-5c0-1.6568542-1.3431458-3-3-3h-10.885c-.6924959.0005551-1.363592.2400305-1.9.678l-6.112 5c-.9811111.8026159-1.3518902 2.1352596-.9262944 3.329261s1.5557101 1.9916592 2.8232944 1.992739zm6-2 1.2-1.6c.1888544-.2518058.4852427-.4.8-.4h4c.3147573 0 .6111456.1481942.8.4l1.2 1.6zm-6.63-1.774 6.111-5c.1788704-.1463286.4029012-.2261881.634-.226h10.885c.5522847 0 1 .4477153 1 1v5c0 .5522847-.4477153 1-1 1h-.5l-2.1-2.8c-.5680045-.7536884-1.4562466-1.1978094-2.4-1.2h-4c-.9439012.0015673-1.8324054.4458194-2.4 1.2l-2.1 2.8h-3.5c-.4228338.0003445-.8001849-.2652916-.9424846-.6634615-.1422998-.39817-.018789-.8428063.3084846-1.1105385z"></path><circle id="Oval" cx="22" cy="13" r="1"></circle><path d="m7 54c.65301043.0007854 1.30282609-.0911316 1.93-.273 2.0000752 3.8193104 6.6734082 5.3575992 10.551 3.473 1.6961589 1.7895154 4.0533722 2.8030872 6.519 2.8030872s4.8228411-1.0135718 6.519-2.8030872c3.8768066 1.8850547 8.5498676.3481841 10.551-3.47.62732.1808539 1.2771329.2717603 1.93.27 3.8659932 0 7-3.1340068 7-7s-3.1340068-7-7-7c-.5522847 0-1 .4477153-1 1s.4477153 1 1 1c2.0421082-.0034211 3.8810693 1.2353593 4.6451715 3.1291294.7641023 1.8937701.2997643 4.0618903-1.1729064 5.4766194-1.4726708 1.4147291-3.6576738 1.7917126-5.5192651.9522512-.2516918-.1132563-.539001-.1174524-.7938929-.0115946s-.4546991.3123555-.5521071.5705946c-.6307538 1.683106-1.9848905 2.9933855-3.6878439 3.5684037s-3.5742071.353822-5.0961561-.6024037c-.4332368-.2720168-1.001909-.1732111-1.318.229-1.3228386 1.6963261-3.3538551 2.6880597-5.505 2.6880597s-4.1821614-.9917336-5.505-2.6880597c-.316091-.4022111-.8847632-.5010168-1.318-.229-1.521949.9562257-3.3932027 1.1774219-5.0961561.6024037s-3.0570901-1.8852977-3.6878439-3.5684037c-.097408-.2582391-.2972152-.4647368-.55210707-.5705946-.25489189-.1058578-.54220114-.1016617-.79389293.0115946-1.86159128.8394614-4.04659435.4624779-5.51926509-.9522512s-1.93700869-3.5828493-1.17290646-5.4766194c.76410224-1.8937701 2.60306338-3.1325505 4.64517155-3.1291294.55228475 0 1-.4477153 1-1s-.44771525-1-1-1c-3.86599325 0-7 3.1340068-7 7s3.13400675 7 7 7z"></path><path d="m18.774 37.367c-.3496295-.4274065-.9795113-.490529-1.407-.141l-11 9c-.2828543.2241791-.4229611.5833814-.36659715.9398725.05636395.3564912.30045184.6549494.63866942.7809323s.71807876.0599401.99392773-.1728048l11-9c.4274065-.3496295.490529-.9795113.141-1.407z"></path><path d="m45 48c.4228338.0003445.8001849-.2652916.9424846-.6634615.1422998-.39817.018789-.8428063-.3084846-1.1105385l-11-9c-.4281437-.3393297-1.0493712-.2722611-1.3952244.1506305-.3458532.4228915-.2883157 1.0450741.1292244 1.3973695l11 9c.1780911.1463318.4015019.2262224.632.226z"></path><path d="m25 38v13c0 .5522847.4477153 1 1 1s1-.4477153 1-1v-13c0-.5522847-.4477153-1-1-1s-1 .4477153-1 1z"></path><path d="m15.485 51.857c.4733224.2843303 1.0875154.1312297 1.372-.342l3-5c.1918041-.3065026.2032165-.6926712.0298476-1.0099658-.173369-.3172946-.5045139-.5162906-.8660598-.5204443-.3615458-.0041536-.6971751.1871822-.8777878.5004101l-3 5c-.2843303.4733224-.1312297 1.0875154.342 1.372z"></path><path d="m32.485 45.143c-.4732297.2844846-.6263303.8986776-.342 1.372l3 5c.1806127.3132279.516242.5045637.8777878.5004101.3615459-.0041537.6926908-.2031497.8660598-.5204443.1733689-.3172946.1619565-.7034632-.0298476-1.0099658l-3-5c-.2844846-.4732297-.8986776-.6263303-1.372-.342z"></path></g></g></svg>